<?xml version="1.0" encoding="UTF-8"?>
<!DOCTYPE svg PUBLIC "-//W3C//DTD SVG 1.1//EN" "http://www.w3.org/Graphics/SVG/1.1/DTD/svg11.dtd">
<svg version="1.1" xmlns="http://www.w3.org/2000/svg" xmlns:xlink="http://www.w3.org/1999/xlink" x="0" y="0" width="294.509" height="292.107" viewBox="0, 0, 294.509, 292.107">
  <defs>
    <clipPath id="Clip_1">
      <path d="M447,113.775 L743.508,113.775 L743.508,361.407 L447,361.407 z M632.215,125.775 C629.942,125.775 628.006,126.596 626.438,128.225 C624.875,129.85 624.089,131.838 624.089,134.161 L624.089,153.054 C624.089,155.323 624.878,157.256 626.445,158.823 C628.013,160.391 629.946,161.18 632.215,161.18 C634.651,161.18 636.71,160.396 638.365,158.833 C640.025,157.266 640.861,155.329 640.861,153.054 L640.861,134.161 C640.861,131.886 639.996,129.908 638.282,128.255 C636.572,126.606 634.541,125.775 632.215,125.775 z M568.259,152.467 C565.87,152.467 563.902,153.288 562.389,154.924 C560.887,156.549 560.133,158.563 560.133,160.94 C560.133,163.265 560.906,165.213 562.446,166.753 L568.428,172.648 C570.065,174.407 571.986,175.305 574.152,175.305 C576.364,175.305 578.322,174.488 580.002,172.869 C581.689,171.243 582.539,169.221 582.539,166.833 C582.539,164.509 581.71,162.453 580.065,160.686 L574.151,155.032 C572.576,153.334 570.594,152.467 568.259,152.467 z M696.691,152.294 C694.364,152.294 692.388,153.096 690.791,154.693 L677.271,168.3 C675.673,170.02 674.872,171.961 674.872,174.112 C674.872,176.32 675.672,178.29 677.259,179.999 C680.875,183.493 684.94,183.493 689.288,180.051 L702.505,166.752 C704.106,165.028 704.904,162.942 704.904,160.506 C704.904,158.236 704.1,156.289 702.504,154.693 C700.908,153.097 698.961,152.294 696.691,152.294 z M723.382,216.509 L704.404,216.509 C702.076,216.509 700.086,217.327 698.461,218.952 C696.836,220.577 696.018,222.538 696.018,224.809 C696.018,227.203 696.886,229.188 698.611,230.728 C700.054,232.356 702.011,233.195 704.404,233.195 L723.382,233.195 C725.656,233.195 727.591,232.374 729.159,230.745 C730.723,229.12 731.509,227.132 731.508,224.809 C731.509,222.484 730.722,220.509 729.156,218.912 C727.588,217.314 725.654,216.509 723.382,216.509 z M632.215,192.551 C641.153,192.551 648.753,195.705 655.043,202.023 C661.333,208.342 664.473,215.928 664.473,224.809 C664.298,230.347 663.221,235.818 660.341,240.636 C651.656,232.336 640.483,227.651 628.402,227.775 L625.663,227.775 C622.916,217.786 618.319,208.45 610.496,201.423 C616.725,195.724 623.661,192.534 632.215,192.551 z M632.215,176.039 C618.36,176.356 606.128,180.95 596.741,191.447 C588.975,187.86 580.685,185.636 572.073,185.745 C559.017,185.745 547.395,189.842 537.224,198.031 C527.546,206.143 520.413,216.699 517.752,229.176 C501.47,233.93 490.101,244.127 484.592,260.35 L484.601,260.354 C484.37,260.928 484.464,260.592 484.392,261.38 C484.392,262.488 485.126,263.093 486.365,263.093 L499.624,263.093 C500.466,263.093 501.232,262.501 501.95,261.391 C504.144,256.614 507.364,252.754 511.654,249.743 C515.943,246.732 520.666,245.03 525.834,244.633 L530.89,243.936 C532.144,243.941 532.882,243.162 532.882,241.794 L533.484,237.179 C534.456,227.293 538.629,219.06 546.018,212.442 C553.408,205.823 562.085,202.517 572.073,202.517 C581.945,202.517 590.565,205.794 597.955,212.357 C605.344,218.918 609.546,227.065 610.573,236.82 L611.267,242.205 C611.263,243.47 612.076,244.201 613.496,244.201 L628.402,244.201 C634.257,244.201 639.578,245.762 644.378,248.886 C649.18,252.012 652.742,256.155 655.071,261.325 C655.826,262.502 656.556,263.093 657.347,263.093 L670.693,263.093 C672.271,263.093 672.876,262.055 672.386,260.373 L670.648,255.49 C677.482,246.649 681.198,236.028 681.072,224.809 C681.072,218.213 679.787,211.907 677.219,205.894 C674.652,199.886 671.209,194.692 666.889,190.313 C662.567,185.933 657.37,182.458 651.302,179.891 C645.232,177.323 638.868,176.039 632.215,176.039 z M664.713,275.439 L491.651,275.439 C489.328,275.439 487.34,276.225 485.715,277.788 C484.086,279.356 483.265,281.292 483.265,283.565 C483.265,285.842 484.103,287.766 485.765,289.305 C487.392,291.054 489.372,291.951 491.651,291.951 L664.713,291.951 C666.986,291.951 668.922,291.13 670.49,289.501 C672.053,287.876 672.839,285.888 672.839,283.565 C672.839,281.298 672.067,279.366 670.53,277.798 C668.99,276.228 667.04,275.439 664.713,275.439 z M690.625,274.745 C688.296,274.745 686.318,275.564 684.721,277.192 C683.127,278.817 682.325,280.806 682.325,283.132 C682.325,285.466 683.192,287.448 684.911,289.044 L690.788,295.008 C692.386,296.606 694.304,297.411 696.518,297.411 C698.547,297.411 700.533,296.616 702.466,295.046 C704.106,293.286 704.904,291.2 704.904,288.764 C704.904,286.546 704.095,284.679 702.49,283.198 L696.527,277.148 C694.802,275.546 692.833,274.745 690.625,274.745 z M640.621,304.124 L467.646,304.124 C465.206,304.124 463.145,304.939 461.49,306.563 C459.834,308.188 459,310.18 459,312.51 C459,314.785 459.837,316.722 461.496,318.289 C463.151,319.852 465.21,320.636 467.646,320.636 L640.621,320.636 C642.944,320.636 644.944,319.851 646.597,318.289 C648.257,316.722 649.094,314.785 649.094,312.51 C649.094,310.18 648.26,308.188 646.604,306.563 C644.951,304.94 642.948,304.124 640.621,304.124 z M681.092,332.982 L507.857,332.982 C505.539,332.982 503.541,333.735 501.888,335.234 C500.223,336.745 499.384,338.656 499.384,340.934 C499.384,343.273 500.283,345.257 502.063,346.853 C503.564,348.538 505.519,349.407 507.857,349.407 L681.092,349.407 C683.363,349.407 685.339,348.574 686.992,346.921 C688.645,345.267 689.478,343.263 689.478,340.934 C689.478,338.658 688.655,336.748 687.021,335.238 C685.396,333.736 683.411,332.982 681.092,332.982 z"/>
    </clipPath>
    <filter id="Shadow_2">
      <feGaussianBlur in="SourceAlpha" stdDeviation="5"/>
      <feOffset dx="1" dy="1" result="offsetblur"/>
      <feFlood flood-color="#000000"/>
      <feComposite in2="offsetblur" operator="in"/>
    </filter>
  </defs>
  <g id="Layer_1" transform="translate(-448, -114.775)">
    <g>
      <path d="M681.092,332.982 C683.411,332.982 685.396,333.736 687.021,335.238 C688.655,336.748 689.478,338.658 689.478,340.934 C689.478,343.263 688.645,345.267 686.992,346.921 C685.339,348.574 683.363,349.407 681.092,349.407 L507.857,349.407 C505.519,349.407 503.564,348.538 502.063,346.853 C500.283,345.257 499.384,343.273 499.384,340.934 C499.384,338.656 500.223,336.745 501.888,335.234 C503.541,333.735 505.539,332.982 507.857,332.982 L681.092,332.982 z M640.621,304.124 C642.948,304.124 644.951,304.94 646.604,306.563 C648.26,308.188 649.094,310.18 649.094,312.51 C649.094,314.785 648.257,316.722 646.597,318.289 C644.944,319.851 642.944,320.636 640.621,320.636 L467.646,320.636 C465.21,320.636 463.151,319.852 461.496,318.289 C459.837,316.722 459,314.785 459,312.51 C459,310.18 459.834,308.188 461.49,306.563 C463.145,304.939 465.206,304.124 467.646,304.124 L640.621,304.124 z M690.625,274.745 C692.833,274.745 694.802,275.546 696.527,277.148 L702.49,283.198 C704.095,284.679 704.904,286.546 704.904,288.764 C704.904,291.2 704.106,293.286 702.466,295.046 C700.533,296.616 698.547,297.411 696.518,297.411 C694.304,297.411 692.386,296.606 690.788,295.008 L684.911,289.044 C683.192,287.448 682.325,285.466 682.325,283.132 C682.325,280.806 683.127,278.817 684.721,277.192 C686.318,275.564 688.296,274.745 690.625,274.745 z M664.713,275.439 C667.04,275.439 668.99,276.228 670.53,277.798 C672.067,279.366 672.839,281.298 672.839,283.565 C672.839,285.888 672.053,287.876 670.49,289.501 C668.922,291.13 666.986,291.951 664.713,291.951 L491.651,291.951 C489.372,291.951 487.392,291.054 485.765,289.305 C484.103,287.766 483.265,285.842 483.265,283.565 C483.265,281.292 484.086,279.356 485.715,277.788 C487.34,276.225 489.328,275.439 491.651,275.439 L664.713,275.439 z M632.215,176.039 C638.868,176.039 645.232,177.323 651.302,179.891 C657.37,182.458 662.567,185.933 666.889,190.313 C671.209,194.692 674.652,199.886 677.219,205.894 C679.787,211.907 681.072,218.213 681.072,224.809 C681.198,236.028 677.482,246.649 670.648,255.49 L672.386,260.373 C672.876,262.055 672.271,263.093 670.693,263.093 L657.347,263.093 C656.556,263.093 655.826,262.502 655.071,261.325 C652.742,256.155 649.18,252.012 644.378,248.886 C639.578,245.762 634.257,244.201 628.402,244.201 L613.496,244.201 C612.076,244.201 611.263,243.47 611.267,242.205 L610.573,236.82 C609.546,227.065 605.344,218.918 597.955,212.357 C590.565,205.794 581.945,202.517 572.073,202.517 C562.085,202.517 553.408,205.823 546.018,212.442 C538.629,219.06 534.456,227.293 533.484,237.179 L532.882,241.794 C532.882,243.162 532.144,243.941 530.89,243.936 L525.834,244.633 C520.666,245.03 515.943,246.732 511.654,249.743 C507.364,252.754 504.144,256.614 501.95,261.391 C501.232,262.501 500.466,263.093 499.624,263.093 L486.365,263.093 C485.126,263.093 484.392,262.488 484.392,261.38 C484.464,260.592 484.37,260.928 484.601,260.354 L484.592,260.35 C490.101,244.127 501.47,233.93 517.752,229.176 C520.413,216.699 527.546,206.143 537.224,198.031 C547.395,189.842 559.017,185.745 572.073,185.745 C580.685,185.636 588.975,187.86 596.741,191.447 C606.128,180.95 618.36,176.356 632.215,176.039 z M632.215,192.551 C623.661,192.534 616.725,195.724 610.496,201.423 C618.319,208.45 622.916,217.786 625.663,227.775 L628.402,227.775 C640.483,227.651 651.656,232.336 660.341,240.636 C663.221,235.818 664.298,230.347 664.473,224.809 C664.473,215.928 661.333,208.342 655.043,202.023 C648.753,195.705 641.153,192.551 632.215,192.551 z M723.382,216.509 C725.654,216.509 727.588,217.314 729.156,218.912 C730.722,220.509 731.509,222.484 731.508,224.809 C731.509,227.132 730.723,229.12 729.159,230.745 C727.591,232.374 725.656,233.195 723.382,233.195 L704.404,233.195 C702.011,233.195 700.054,232.356 698.611,230.728 C696.886,229.188 696.018,227.203 696.018,224.809 C696.018,222.538 696.836,220.577 698.461,218.952 C700.086,217.327 702.076,216.509 704.404,216.509 L723.382,216.509 z M696.691,152.294 C698.961,152.294 700.908,153.097 702.504,154.693 C704.1,156.289 704.904,158.236 704.904,160.506 C704.904,162.942 704.106,165.028 702.505,166.752 L689.288,180.051 C684.94,183.493 680.875,183.493 677.259,179.999 C675.672,178.29 674.872,176.32 674.872,174.112 C674.872,171.961 675.673,170.02 677.271,168.3 L690.791,154.693 C692.388,153.096 694.364,152.294 696.691,152.294 z M568.259,152.467 C570.594,152.467 572.576,153.334 574.151,155.032 L580.065,160.686 C581.71,162.453 582.539,164.509 582.539,166.833 C582.539,169.221 581.689,171.243 580.002,172.869 C578.322,174.488 576.364,175.305 574.152,175.305 C571.986,175.305 570.065,174.407 568.428,172.648 L562.446,166.753 C560.906,165.213 560.133,163.265 560.133,160.94 C560.133,158.563 560.887,156.549 562.389,154.924 C563.902,153.288 565.87,152.467 568.259,152.467 z M632.215,125.775 C634.541,125.775 636.572,126.606 638.282,128.255 C639.996,129.908 640.861,131.886 640.861,134.161 L640.861,153.054 C640.861,155.329 640.025,157.266 638.365,158.833 C636.71,160.396 634.651,161.18 632.215,161.18 C629.946,161.18 628.013,160.391 626.445,158.823 C624.878,157.256 624.089,155.323 624.089,153.054 L624.089,134.161 C624.089,131.838 624.875,129.85 626.438,128.225 C628.006,126.596 629.942,125.775 632.215,125.775 z" clip-path="url(#Clip_1)" filter="url(#Shadow_2)" fill="rgba(0,0,0,0.3)"/>
      <path d="M459.5,312.51 Q459.5,315.716 461.84,317.926 Q464.18,320.136 467.646,320.136 L640.621,320.136 Q643.914,320.136 646.254,317.926 Q648.594,315.716 648.594,312.51 Q648.594,309.217 646.254,306.92 Q643.914,304.624 640.621,304.624 L467.646,304.624 Q464.18,304.624 461.84,306.92 Q459.5,309.217 459.5,312.51 z M483.765,283.565 Q483.765,286.771 486.105,288.938 Q488.445,291.451 491.651,291.451 L664.713,291.451 Q667.919,291.451 670.129,289.155 Q672.339,286.858 672.339,283.565 Q672.339,280.358 670.173,278.149 Q668.006,275.939 664.713,275.939 L491.651,275.939 Q488.358,275.939 486.062,278.149 Q483.765,280.358 483.765,283.565 z M484.892,261.38 Q484.892,262.593 486.365,262.593 L499.624,262.593 Q500.577,262.593 501.531,261.12 Q504.824,253.927 511.367,249.334 Q517.909,244.741 525.796,244.134 L530.822,243.441 Q532.382,243.441 532.382,241.794 L532.988,237.115 Q534.462,222.122 545.684,212.07 Q556.907,202.017 572.073,202.017 Q587.065,202.017 598.287,211.983 Q609.51,221.949 611.07,236.768 L611.763,242.141 Q611.763,243.701 613.496,243.701 L628.402,243.701 Q637.328,243.701 644.651,248.467 Q651.974,253.234 655.527,261.12 Q656.48,262.593 657.347,262.593 L670.693,262.593 Q672.512,262.593 671.906,260.513 L670.086,255.4 Q680.572,242.401 680.572,224.809 Q680.572,215.016 676.759,206.09 Q672.946,197.164 666.533,190.664 Q660.12,184.165 651.107,180.352 Q642.094,176.539 632.215,176.539 Q610.81,176.539 596.858,192.051 Q585.158,186.245 572.073,186.245 Q552.66,186.245 537.538,198.421 Q522.416,210.596 518.169,229.575 Q493.471,236.075 485.065,260.513 Q484.892,260.773 484.892,261.38 z M499.884,340.934 Q499.884,344.228 502.397,346.481 Q504.564,348.907 507.857,348.907 L681.092,348.907 Q684.298,348.907 686.638,346.567 Q688.978,344.228 688.978,340.934 Q688.978,337.728 686.682,335.605 Q684.385,333.482 681.092,333.482 L507.857,333.482 Q504.564,333.482 502.224,335.605 Q499.884,337.728 499.884,340.934 z M560.633,160.94 Q560.633,164.233 562.8,166.399 L568.779,172.292 Q571.119,174.805 574.152,174.805 Q577.272,174.805 579.655,172.509 Q582.039,170.212 582.039,166.833 Q582.039,163.54 579.699,161.026 L573.806,155.393 Q571.553,152.967 568.259,152.967 Q564.88,152.967 562.756,155.263 Q560.633,157.56 560.633,160.94 z M609.77,201.41 Q619.129,192.051 632.215,192.051 Q645.821,192.051 655.397,201.67 Q664.973,211.29 664.973,224.809 Q664.973,233.822 660.467,241.448 Q647.294,228.275 628.402,228.275 L625.282,228.275 Q621.383,211.983 609.77,201.41 z M624.589,153.054 Q624.589,156.26 626.799,158.47 Q629.009,160.68 632.215,160.68 Q635.682,160.68 638.021,158.47 Q640.361,156.26 640.361,153.054 L640.361,134.162 Q640.361,130.955 637.935,128.615 Q635.508,126.275 632.215,126.275 Q629.009,126.275 626.799,128.572 Q624.589,130.868 624.589,134.162 z M675.372,174.112 Q675.372,177.232 677.625,179.659 Q682.738,184.598 688.978,179.659 L702.151,166.399 Q704.404,163.973 704.404,160.506 Q704.404,157.3 702.151,155.047 Q699.897,152.794 696.691,152.794 Q693.398,152.794 691.145,155.047 L677.625,168.653 Q675.372,171.079 675.372,174.112 z M682.825,283.132 Q682.825,286.425 685.252,288.678 L691.145,294.658 Q693.398,296.911 696.518,296.911 Q699.377,296.911 702.151,294.658 Q704.404,292.231 704.404,288.765 Q704.404,285.645 702.151,283.565 L696.171,277.499 Q693.744,275.245 690.625,275.245 Q687.331,275.245 685.078,277.542 Q682.825,279.839 682.825,283.132 z M696.518,224.809 Q696.518,228.189 698.944,230.355 Q701.024,232.695 704.404,232.695 L723.382,232.695 Q726.589,232.695 728.799,230.398 Q731.009,228.102 731.009,224.809 Q731.009,221.516 728.799,219.263 Q726.589,217.009 723.382,217.009 L704.404,217.009 Q701.111,217.009 698.814,219.306 Q696.518,221.602 696.518,224.809 z" fill="#FFFFFF"/>
      <path d="M459.5,312.51 Q459.5,315.716 461.84,317.926 Q464.18,320.136 467.646,320.136 L640.621,320.136 Q643.914,320.136 646.254,317.926 Q648.594,315.716 648.594,312.51 Q648.594,309.217 646.254,306.92 Q643.914,304.624 640.621,304.624 L467.646,304.624 Q464.18,304.624 461.84,306.92 Q459.5,309.217 459.5,312.51 z M483.765,283.565 Q483.765,286.771 486.105,288.938 Q488.445,291.451 491.651,291.451 L664.713,291.451 Q667.919,291.451 670.129,289.155 Q672.339,286.858 672.339,283.565 Q672.339,280.358 670.173,278.149 Q668.006,275.939 664.713,275.939 L491.651,275.939 Q488.358,275.939 486.062,278.149 Q483.765,280.358 483.765,283.565 z M484.892,261.38 Q484.892,262.593 486.365,262.593 L499.624,262.593 Q500.577,262.593 501.531,261.12 Q504.824,253.927 511.367,249.334 Q517.909,244.741 525.796,244.134 L530.822,243.441 Q532.382,243.441 532.382,241.794 L532.988,237.115 Q534.462,222.122 545.684,212.07 Q556.907,202.017 572.073,202.017 Q587.065,202.017 598.287,211.983 Q609.51,221.949 611.07,236.768 L611.763,242.141 Q611.763,243.701 613.496,243.701 L628.402,243.701 Q637.328,243.701 644.651,248.467 Q651.974,253.234 655.527,261.12 Q656.48,262.593 657.347,262.593 L670.693,262.593 Q672.512,262.593 671.906,260.513 L670.086,255.4 Q680.572,242.401 680.572,224.809 Q680.572,215.016 676.759,206.09 Q672.946,197.164 666.533,190.664 Q660.12,184.165 651.107,180.352 Q642.094,176.539 632.215,176.539 Q610.81,176.539 596.858,192.051 Q585.158,186.245 572.073,186.245 Q552.66,186.245 537.538,198.421 Q522.416,210.596 518.169,229.575 Q493.471,236.075 485.065,260.513 Q484.892,260.773 484.892,261.38 z M499.884,340.934 Q499.884,344.228 502.397,346.481 Q504.564,348.907 507.857,348.907 L681.092,348.907 Q684.298,348.907 686.638,346.567 Q688.978,344.228 688.978,340.934 Q688.978,337.728 686.682,335.605 Q684.385,333.482 681.092,333.482 L507.857,333.482 Q504.564,333.482 502.224,335.605 Q499.884,337.728 499.884,340.934 z M560.633,160.94 Q560.633,164.233 562.8,166.399 L568.779,172.292 Q571.119,174.805 574.152,174.805 Q577.272,174.805 579.655,172.509 Q582.039,170.212 582.039,166.833 Q582.039,163.54 579.699,161.026 L573.806,155.393 Q571.553,152.967 568.259,152.967 Q564.88,152.967 562.756,155.263 Q560.633,157.56 560.633,160.94 z M609.77,201.41 Q619.129,192.051 632.215,192.051 Q645.821,192.051 655.397,201.67 Q664.973,211.29 664.973,224.809 Q664.973,233.822 660.467,241.448 Q647.294,228.275 628.402,228.275 L625.282,228.275 Q621.383,211.983 609.77,201.41 z M624.589,153.054 Q624.589,156.26 626.799,158.47 Q629.009,160.68 632.215,160.68 Q635.682,160.68 638.021,158.47 Q640.361,156.26 640.361,153.054 L640.361,134.162 Q640.361,130.955 637.935,128.615 Q635.508,126.275 632.215,126.275 Q629.009,126.275 626.799,128.572 Q624.589,130.868 624.589,134.162 z M675.372,174.112 Q675.372,177.232 677.625,179.659 Q682.738,184.598 688.978,179.659 L702.151,166.399 Q704.404,163.973 704.404,160.506 Q704.404,157.3 702.151,155.047 Q699.897,152.794 696.691,152.794 Q693.398,152.794 691.145,155.047 L677.625,168.653 Q675.372,171.079 675.372,174.112 z M682.825,283.132 Q682.825,286.425 685.252,288.678 L691.145,294.658 Q693.398,296.911 696.518,296.911 Q699.377,296.911 702.151,294.658 Q704.404,292.231 704.404,288.765 Q704.404,285.645 702.151,283.565 L696.171,277.499 Q693.744,275.245 690.625,275.245 Q687.331,275.245 685.078,277.542 Q682.825,279.839 682.825,283.132 z M696.518,224.809 Q696.518,228.189 698.944,230.355 Q701.024,232.695 704.404,232.695 L723.382,232.695 Q726.589,232.695 728.799,230.398 Q731.009,228.102 731.009,224.809 Q731.009,221.516 728.799,219.263 Q726.589,217.009 723.382,217.009 L704.404,217.009 Q701.111,217.009 698.814,219.306 Q696.518,221.602 696.518,224.809 z" fill-opacity="0" stroke="#FFFFFF" stroke-width="1"/>
    </g>
    <g>
      <path d="M509.1,405.302 C509.235,404.222 509.64,402.512 510.225,400.397 L517.425,373.442 C518.01,371.192 518.64,369.077 519.09,367.862 L508.875,367.862 C508.83,369.437 508.65,370.742 508.2,372.812 L505.365,386.222 C505.185,386.942 504.87,389.102 504.735,390.092 C504.465,391.982 504.465,391.982 504.375,392.837 C503.79,389.192 503.475,387.707 503.115,386.267 L499.47,372.407 C498.885,370.292 498.615,369.032 498.435,367.862 L490.425,367.862 C490.245,369.122 489.975,370.517 489.435,372.542 L485.835,386.492 C485.565,387.437 485.25,389.057 484.575,392.837 C484.035,389.282 483.72,387.167 483.585,386.492 L480.705,372.812 C480.345,370.922 480.12,369.482 480.075,367.862 L469.815,367.862 C470.265,369.077 470.895,371.147 471.525,373.442 L478.725,400.442 C479.4,403.052 479.625,403.997 479.85,405.302 L488.805,405.302 C488.94,404.087 489.21,402.782 489.795,400.532 L493.125,387.257 C493.665,385.142 494.205,382.307 494.475,380.462 C494.925,383.432 495.285,385.502 495.735,387.257 L499.155,400.487 C499.605,402.287 499.92,403.862 500.1,405.302 z" fill="#FFFFFF"/>
      <path d="M509.1,405.302 C509.235,404.222 509.64,402.512 510.225,400.397 L517.425,373.442 C518.01,371.192 518.64,369.077 519.09,367.862 L508.875,367.862 C508.83,369.437 508.65,370.742 508.2,372.812 L505.365,386.222 C505.185,386.942 504.87,389.102 504.735,390.092 C504.465,391.982 504.465,391.982 504.375,392.837 C503.79,389.192 503.475,387.707 503.115,386.267 L499.47,372.407 C498.885,370.292 498.615,369.032 498.435,367.862 L490.425,367.862 C490.245,369.122 489.975,370.517 489.435,372.542 L485.835,386.492 C485.565,387.437 485.25,389.057 484.575,392.837 C484.035,389.282 483.72,387.167 483.585,386.492 L480.705,372.812 C480.345,370.922 480.12,369.482 480.075,367.862 L469.815,367.862 C470.265,369.077 470.895,371.147 471.525,373.442 L478.725,400.442 C479.4,403.052 479.625,403.997 479.85,405.302 L488.805,405.302 C488.94,404.087 489.21,402.782 489.795,400.532 L493.125,387.257 C493.665,385.142 494.205,382.307 494.475,380.462 C494.925,383.432 495.285,385.502 495.735,387.257 L499.155,400.487 C499.605,402.287 499.92,403.862 500.1,405.302 z" fill-opacity="0" stroke="#000000" stroke-width="1" stroke-opacity="0.2"/>
    </g>
    <g>
      <path d="M554.195,394.097 C554.15,393.647 554.15,393.377 554.15,393.197 C554.015,390.632 553.835,388.742 553.475,387.302 C551.9,380.597 546.995,376.772 539.975,376.772 C531.38,376.772 525.665,382.667 525.665,391.577 C525.665,396.032 527.105,399.857 529.76,402.557 C532.325,405.122 535.79,406.382 540.2,406.382 C544.655,406.382 548.255,405.077 550.82,402.557 C552.08,401.297 552.755,400.262 553.79,397.922 L545.96,395.717 C545.6,396.887 545.285,397.382 544.61,398.012 C543.44,399.092 541.865,399.677 540.065,399.677 C536.51,399.677 534.395,397.742 533.945,394.097 z M534.08,387.887 C534.845,384.917 536.78,383.477 539.975,383.477 C543.08,383.477 545.015,385.007 545.645,387.887 z" fill="#FFFFFF"/>
      <path d="M554.195,394.097 C554.15,393.647 554.15,393.377 554.15,393.197 C554.015,390.632 553.835,388.742 553.475,387.302 C551.9,380.597 546.995,376.772 539.975,376.772 C531.38,376.772 525.665,382.667 525.665,391.577 C525.665,396.032 527.105,399.857 529.76,402.557 C532.325,405.122 535.79,406.382 540.2,406.382 C544.655,406.382 548.255,405.077 550.82,402.557 C552.08,401.297 552.755,400.262 553.79,397.922 L545.96,395.717 C545.6,396.887 545.285,397.382 544.61,398.012 C543.44,399.092 541.865,399.677 540.065,399.677 C536.51,399.677 534.395,397.742 533.945,394.097 z M534.08,387.887 C534.845,384.917 536.78,383.477 539.975,383.477 C543.08,383.477 545.015,385.007 545.645,387.887 z" fill-opacity="0" stroke="#000000" stroke-width="1" stroke-opacity="0.2"/>
    </g>
    <g>
      <path d="M580.84,387.527 C577.6,387.617 576.25,387.662 574.495,387.842 C570.445,388.202 567.43,389.147 565.135,390.767 C562.975,392.252 561.85,394.502 561.85,397.337 C561.85,399.812 562.705,401.972 564.325,403.457 C566.125,405.122 568.69,405.932 572.11,405.932 C575.8,405.932 578.32,405.167 580.84,403.232 L580.84,405.302 L589.57,405.302 C589.345,403.277 589.255,401.657 589.255,398.912 L589.255,386.762 C589.255,382.712 587.995,380.237 585.115,378.662 C583.36,377.717 580.12,377.087 576.79,377.087 C572.425,377.087 569.095,377.942 566.665,379.652 C564.775,381.002 563.785,382.442 562.885,385.097 L571.48,386.492 C572.155,384.287 573.685,383.342 576.565,383.342 C579.535,383.342 580.84,384.332 580.84,386.492 z M580.84,394.547 C580.84,395.897 580.255,397.112 579.22,398.012 C578.005,399.047 575.98,399.722 574.135,399.722 C571.795,399.722 570.445,398.777 570.445,397.157 C570.445,395.852 571.435,394.727 573.055,394.187 C574.9,393.602 576.835,393.377 580.84,393.287 z" fill="#FFFFFF"/>
      <path d="M580.84,387.527 C577.6,387.617 576.25,387.662 574.495,387.842 C570.445,388.202 567.43,389.147 565.135,390.767 C562.975,392.252 561.85,394.502 561.85,397.337 C561.85,399.812 562.705,401.972 564.325,403.457 C566.125,405.122 568.69,405.932 572.11,405.932 C575.8,405.932 578.32,405.167 580.84,403.232 L580.84,405.302 L589.57,405.302 C589.345,403.277 589.255,401.657 589.255,398.912 L589.255,386.762 C589.255,382.712 587.995,380.237 585.115,378.662 C583.36,377.717 580.12,377.087 576.79,377.087 C572.425,377.087 569.095,377.942 566.665,379.652 C564.775,381.002 563.785,382.442 562.885,385.097 L571.48,386.492 C572.155,384.287 573.685,383.342 576.565,383.342 C579.535,383.342 580.84,384.332 580.84,386.492 z M580.84,394.547 C580.84,395.897 580.255,397.112 579.22,398.012 C578.005,399.047 575.98,399.722 574.135,399.722 C571.795,399.722 570.445,398.777 570.445,397.157 C570.445,395.852 571.435,394.727 573.055,394.187 C574.9,393.602 576.835,393.377 580.84,393.287 z" fill-opacity="0" stroke="#000000" stroke-width="1" stroke-opacity="0.2"/>
    </g>
    <g>
      <path d="M602.895,377.852 L601.275,377.852 C599.7,377.852 598.575,377.762 597.27,377.582 L597.27,385.097 C598.575,384.917 599.745,384.827 601.185,384.827 L602.895,384.827 L602.895,398.597 C602.895,401.657 603.525,403.187 605.235,404.492 C606.675,405.572 608.79,406.067 611.85,406.067 C614.28,406.067 616.035,405.797 618.06,405.167 L617.385,398.327 C616.26,398.912 615.405,399.137 614.235,399.137 C613.38,399.137 612.66,398.957 612.165,398.642 C611.58,398.237 611.355,397.607 611.355,396.347 L611.355,384.827 L613.245,384.827 C614.865,384.827 616.035,384.917 617.385,385.097 L617.385,377.627 C615.99,377.807 614.955,377.852 612.975,377.852 L611.355,377.852 L611.355,376.907 C611.355,374.747 611.49,372.587 611.715,370.742 L602.535,370.742 C602.805,372.857 602.895,374.657 602.895,376.907 z" fill="#FFFFFF"/>
      <path d="M602.895,377.852 L601.275,377.852 C599.7,377.852 598.575,377.762 597.27,377.582 L597.27,385.097 C598.575,384.917 599.745,384.827 601.185,384.827 L602.895,384.827 L602.895,398.597 C602.895,401.657 603.525,403.187 605.235,404.492 C606.675,405.572 608.79,406.067 611.85,406.067 C614.28,406.067 616.035,405.797 618.06,405.167 L617.385,398.327 C616.26,398.912 615.405,399.137 614.235,399.137 C613.38,399.137 612.66,398.957 612.165,398.642 C611.58,398.237 611.355,397.607 611.355,396.347 L611.355,384.827 L613.245,384.827 C614.865,384.827 616.035,384.917 617.385,385.097 L617.385,377.627 C615.99,377.807 614.955,377.852 612.975,377.852 L611.355,377.852 L611.355,376.907 C611.355,374.747 611.49,372.587 611.715,370.742 L602.535,370.742 C602.805,372.857 602.895,374.657 602.895,376.907 z" fill-opacity="0" stroke="#000000" stroke-width="1" stroke-opacity="0.2"/>
    </g>
    <g>
      <path d="M635.21,405.302 C634.94,402.962 634.85,401.072 634.85,398.507 L634.85,389.372 C636.65,386.402 639.08,384.692 641.645,384.692 C642.905,384.692 643.895,385.097 644.525,385.907 C645.065,386.672 645.245,387.482 645.245,389.282 L645.245,398.507 C645.245,401.252 645.155,403.142 644.885,405.302 L654.245,405.302 C654.02,403.412 653.885,401.162 653.885,398.552 L653.885,387.257 C653.885,383.702 653.12,381.497 651.32,379.697 C649.655,378.032 647.225,377.177 644.165,377.177 C640.34,377.177 637.505,378.302 634.805,380.912 C634.805,380.507 634.85,379.787 634.85,379.427 L634.85,374.657 C634.85,371.462 634.94,369.842 635.21,367.862 L625.895,367.862 C626.165,369.617 626.255,371.552 626.255,374.657 L626.255,398.507 C626.255,401.297 626.165,403.187 625.895,405.302 z" fill="#FFFFFF"/>
      <path d="M635.21,405.302 C634.94,402.962 634.85,401.072 634.85,398.507 L634.85,389.372 C636.65,386.402 639.08,384.692 641.645,384.692 C642.905,384.692 643.895,385.097 644.525,385.907 C645.065,386.672 645.245,387.482 645.245,389.282 L645.245,398.507 C645.245,401.252 645.155,403.142 644.885,405.302 L654.245,405.302 C654.02,403.412 653.885,401.162 653.885,398.552 L653.885,387.257 C653.885,383.702 653.12,381.497 651.32,379.697 C649.655,378.032 647.225,377.177 644.165,377.177 C640.34,377.177 637.505,378.302 634.805,380.912 C634.805,380.507 634.85,379.787 634.85,379.427 L634.85,374.657 C634.85,371.462 634.94,369.842 635.21,367.862 L625.895,367.862 C626.165,369.617 626.255,371.552 626.255,374.657 L626.255,398.507 C626.255,401.297 626.165,403.187 625.895,405.302 z" fill-opacity="0" stroke="#000000" stroke-width="1" stroke-opacity="0.2"/>
    </g>
    <g>
      <path d="M691.285,394.097 C691.24,393.647 691.24,393.377 691.24,393.197 C691.105,390.632 690.925,388.742 690.565,387.302 C688.99,380.597 684.085,376.772 677.065,376.772 C668.47,376.772 662.755,382.667 662.755,391.577 C662.755,396.032 664.195,399.857 666.85,402.557 C669.415,405.122 672.88,406.382 677.29,406.382 C681.745,406.382 685.345,405.077 687.91,402.557 C689.17,401.297 689.845,400.262 690.88,397.922 L683.05,395.717 C682.69,396.887 682.375,397.382 681.7,398.012 C680.53,399.092 678.955,399.677 677.155,399.677 C673.6,399.677 671.485,397.742 671.035,394.097 z M671.17,387.887 C671.935,384.917 673.87,383.477 677.065,383.477 C680.17,383.477 682.105,385.007 682.735,387.887 z" fill="#FFFFFF"/>
      <path d="M691.285,394.097 C691.24,393.647 691.24,393.377 691.24,393.197 C691.105,390.632 690.925,388.742 690.565,387.302 C688.99,380.597 684.085,376.772 677.065,376.772 C668.47,376.772 662.755,382.667 662.755,391.577 C662.755,396.032 664.195,399.857 666.85,402.557 C669.415,405.122 672.88,406.382 677.29,406.382 C681.745,406.382 685.345,405.077 687.91,402.557 C689.17,401.297 689.845,400.262 690.88,397.922 L683.05,395.717 C682.69,396.887 682.375,397.382 681.7,398.012 C680.53,399.092 678.955,399.677 677.155,399.677 C673.6,399.677 671.485,397.742 671.035,394.097 z M671.17,387.887 C671.935,384.917 673.87,383.477 677.065,383.477 C680.17,383.477 682.105,385.007 682.735,387.887 z" fill-opacity="0" stroke="#000000" stroke-width="1" stroke-opacity="0.2"/>
    </g>
    <g>
      <path d="M722.295,377.852 C720.18,377.402 719.28,377.312 717.84,377.312 C713.745,377.312 711.045,378.527 708.84,381.407 L708.84,377.852 L699.885,377.852 C700.155,379.787 700.245,381.362 700.245,384.647 L700.245,398.507 C700.245,401.432 700.155,403.052 699.885,405.302 L709.2,405.302 C708.93,403.142 708.84,401.432 708.84,398.552 L708.84,391.532 C709.02,389.552 709.335,388.607 710.19,387.527 C711.495,385.907 713.25,385.097 715.545,385.097 C716.94,385.097 718.065,385.322 720.135,385.952 z" fill="#FFFFFF"/>
      <path d="M722.295,377.852 C720.18,377.402 719.28,377.312 717.84,377.312 C713.745,377.312 711.045,378.527 708.84,381.407 L708.84,377.852 L699.885,377.852 C700.155,379.787 700.245,381.362 700.245,384.647 L700.245,398.507 C700.245,401.432 700.155,403.052 699.885,405.302 L709.2,405.302 C708.93,403.142 708.84,401.432 708.84,398.552 L708.84,391.532 C709.02,389.552 709.335,388.607 710.19,387.527 C711.495,385.907 713.25,385.097 715.545,385.097 C716.94,385.097 718.065,385.322 720.135,385.952 z" fill-opacity="0" stroke="#000000" stroke-width="1" stroke-opacity="0.2"/>
    </g>
  </g>
</svg>
